<mxfile host="app.diagrams.net" agent="Mozilla/5.0 (Windows NT 10.0; Win64; x64) AppleWebKit/537.36 (KHTML, like Gecko) Chrome/133.0.0.0 Safari/537.36" version="26.0.14">
  <diagram name="Page-1" id="3NqAedVSlsKcEIIwsZBZ">
    <mxGraphModel dx="2963" dy="1577" grid="1" gridSize="10" guides="1" tooltips="1" connect="1" arrows="1" fold="1" page="1" pageScale="1" pageWidth="850" pageHeight="1100" math="0" shadow="0">
      <root>
        <mxCell id="0" />
        <mxCell id="1" parent="0" />
        <mxCell id="40smpWzc-tyRivoEmoME-36" value="" style="whiteSpace=wrap;html=1;fillColor=light-dark(#CCCCCC,var(--ge-dark-color, #121212));strokeColor=none;" vertex="1" parent="1">
          <mxGeometry x="290" y="660" width="400" height="394" as="geometry" />
        </mxCell>
        <mxCell id="40smpWzc-tyRivoEmoME-35" value="" style="whiteSpace=wrap;html=1;fillColor=light-dark(#CCCCCC,var(--ge-dark-color, #121212));strokeColor=none;" vertex="1" parent="1">
          <mxGeometry x="30" y="20" width="1150" height="700" as="geometry" />
        </mxCell>
        <mxCell id="40smpWzc-tyRivoEmoME-34" value="" style="whiteSpace=wrap;html=1;fillColor=light-dark(#CCCCCC,var(--ge-dark-color, #121212));strokeColor=none;" vertex="1" parent="1">
          <mxGeometry x="810" y="740" width="680" height="430" as="geometry" />
        </mxCell>
        <mxCell id="40smpWzc-tyRivoEmoME-4" value="1" style="edgeStyle=orthogonalEdgeStyle;rounded=0;orthogonalLoop=1;jettySize=auto;html=1;exitX=0.5;exitY=0;exitDx=0;exitDy=0;entryX=0.5;entryY=1;entryDx=0;entryDy=0;endArrow=open;endFill=0;" edge="1" parent="1" source="wBu85bXGG2CjQwWN3baM-1" target="wBu85bXGG2CjQwWN3baM-5">
          <mxGeometry x="0.65" y="-5" relative="1" as="geometry">
            <mxPoint as="offset" />
          </mxGeometry>
        </mxCell>
        <mxCell id="wBu85bXGG2CjQwWN3baM-15" value="Note: DateTime start/end could be fused into a singular value object, might be the case in the future" style="text;html=1;align=center;verticalAlign=middle;whiteSpace=wrap;rounded=0;" parent="1" vertex="1">
          <mxGeometry width="400" height="30" as="geometry" />
        </mxCell>
        <mxCell id="40smpWzc-tyRivoEmoME-14" value="1" style="edgeStyle=orthogonalEdgeStyle;rounded=0;orthogonalLoop=1;jettySize=auto;html=1;exitX=0.5;exitY=0;exitDx=0;exitDy=0;entryX=0.5;entryY=1;entryDx=0;entryDy=0;endArrow=open;endFill=0;" edge="1" parent="1" source="wBu85bXGG2CjQwWN3baM-85" target="wBu85bXGG2CjQwWN3baM-83">
          <mxGeometry x="0.6604" y="10" relative="1" as="geometry">
            <mxPoint as="offset" />
          </mxGeometry>
        </mxCell>
        <mxCell id="40smpWzc-tyRivoEmoME-15" value="1" style="edgeStyle=orthogonalEdgeStyle;rounded=0;orthogonalLoop=1;jettySize=auto;html=1;exitX=0.5;exitY=0;exitDx=0;exitDy=0;entryX=0.5;entryY=1;entryDx=0;entryDy=0;endArrow=open;endFill=0;" edge="1" parent="1" source="wBu85bXGG2CjQwWN3baM-85" target="wBu85bXGG2CjQwWN3baM-93">
          <mxGeometry x="0.7692" y="-10" relative="1" as="geometry">
            <mxPoint as="offset" />
          </mxGeometry>
        </mxCell>
        <mxCell id="40smpWzc-tyRivoEmoME-1" value="1&lt;div&gt;&lt;br&gt;&lt;/div&gt;" style="edgeStyle=orthogonalEdgeStyle;rounded=0;orthogonalLoop=1;jettySize=auto;html=1;exitX=1;exitY=0.5;exitDx=0;exitDy=0;entryX=0.001;entryY=0.571;entryDx=0;entryDy=0;entryPerimeter=0;endArrow=open;endFill=0;" edge="1" parent="1" source="wBu85bXGG2CjQwWN3baM-79" target="wBu85bXGG2CjQwWN3baM-43">
          <mxGeometry x="0.6835" y="-19" relative="1" as="geometry">
            <mxPoint as="offset" />
          </mxGeometry>
        </mxCell>
        <mxCell id="40smpWzc-tyRivoEmoME-2" value="1" style="edgeStyle=orthogonalEdgeStyle;rounded=0;orthogonalLoop=1;jettySize=auto;html=1;exitX=1;exitY=0.5;exitDx=0;exitDy=0;entryX=0;entryY=0.5;entryDx=0;entryDy=0;endArrow=open;endFill=0;" edge="1" parent="1" source="wBu85bXGG2CjQwWN3baM-76" target="wBu85bXGG2CjQwWN3baM-48">
          <mxGeometry x="0.7251" y="-14" relative="1" as="geometry">
            <mxPoint as="offset" />
          </mxGeometry>
        </mxCell>
        <mxCell id="40smpWzc-tyRivoEmoME-3" value="0..*" style="endArrow=diamondThin;html=1;rounded=0;entryX=0.5;entryY=1;entryDx=0;entryDy=0;exitX=0.5;exitY=0;exitDx=0;exitDy=0;startArrow=open;startFill=0;endFill=1;" edge="1" parent="1" source="wBu85bXGG2CjQwWN3baM-71" target="wBu85bXGG2CjQwWN3baM-35">
          <mxGeometry x="-0.8428" y="-14" width="50" height="50" relative="1" as="geometry">
            <mxPoint x="883.75" y="420" as="sourcePoint" />
            <mxPoint x="933.75" y="370" as="targetPoint" />
            <Array as="points">
              <mxPoint x="840" y="370" />
              <mxPoint x="880" y="370" />
              <mxPoint x="922.75" y="370" />
            </Array>
            <mxPoint as="offset" />
          </mxGeometry>
        </mxCell>
        <mxCell id="40smpWzc-tyRivoEmoME-5" value="1" style="edgeStyle=orthogonalEdgeStyle;rounded=0;orthogonalLoop=1;jettySize=auto;html=1;exitX=0;exitY=0.5;exitDx=0;exitDy=0;entryX=1;entryY=0.5;entryDx=0;entryDy=0;endArrow=open;endFill=0;" edge="1" parent="1" source="wBu85bXGG2CjQwWN3baM-2" target="wBu85bXGG2CjQwWN3baM-9">
          <mxGeometry x="0.7778" y="11" relative="1" as="geometry">
            <mxPoint as="offset" />
          </mxGeometry>
        </mxCell>
        <mxCell id="40smpWzc-tyRivoEmoME-7" value="1" style="edgeStyle=orthogonalEdgeStyle;rounded=0;orthogonalLoop=1;jettySize=auto;html=1;exitX=0;exitY=0.5;exitDx=0;exitDy=0;entryX=1;entryY=0.5;entryDx=0;entryDy=0;endArrow=open;endFill=0;" edge="1" parent="1" source="wBu85bXGG2CjQwWN3baM-18" target="wBu85bXGG2CjQwWN3baM-11">
          <mxGeometry x="0.7561" y="11" relative="1" as="geometry">
            <mxPoint as="offset" />
          </mxGeometry>
        </mxCell>
        <mxCell id="40smpWzc-tyRivoEmoME-8" value="1" style="edgeStyle=orthogonalEdgeStyle;rounded=0;orthogonalLoop=1;jettySize=auto;html=1;exitX=0;exitY=0.5;exitDx=0;exitDy=0;endArrow=open;endFill=0;" edge="1" parent="1" source="wBu85bXGG2CjQwWN3baM-33" target="wBu85bXGG2CjQwWN3baM-13">
          <mxGeometry x="0.798" y="10" relative="1" as="geometry">
            <mxPoint as="offset" />
          </mxGeometry>
        </mxCell>
        <mxCell id="40smpWzc-tyRivoEmoME-9" value="1" style="edgeStyle=orthogonalEdgeStyle;rounded=0;orthogonalLoop=1;jettySize=auto;html=1;exitX=0;exitY=0.5;exitDx=0;exitDy=0;endArrow=open;endFill=0;" edge="1" parent="1" source="wBu85bXGG2CjQwWN3baM-63" target="wBu85bXGG2CjQwWN3baM-31">
          <mxGeometry x="0.7404" y="11" relative="1" as="geometry">
            <mxPoint as="offset" />
          </mxGeometry>
        </mxCell>
        <mxCell id="40smpWzc-tyRivoEmoME-10" value="1" style="endArrow=diamondThin;html=1;rounded=0;endFill=1;startArrow=open;startFill=0;" edge="1" parent="1" source="wBu85bXGG2CjQwWN3baM-22" target="wBu85bXGG2CjQwWN3baM-70">
          <mxGeometry x="-0.7436" y="-15" width="50" height="50" relative="1" as="geometry">
            <mxPoint x="460" y="850" as="sourcePoint" />
            <mxPoint x="510" y="800" as="targetPoint" />
            <mxPoint as="offset" />
          </mxGeometry>
        </mxCell>
        <mxCell id="40smpWzc-tyRivoEmoME-11" value="1" style="edgeStyle=orthogonalEdgeStyle;rounded=0;orthogonalLoop=1;jettySize=auto;html=1;exitX=1;exitY=0.5;exitDx=0;exitDy=0;entryX=0.006;entryY=0.339;entryDx=0;entryDy=0;entryPerimeter=0;startArrow=diamondThin;startFill=1;endArrow=open;endFill=0;" edge="1" parent="1" source="wBu85bXGG2CjQwWN3baM-20" target="wBu85bXGG2CjQwWN3baM-38">
          <mxGeometry x="0.7913" y="-11" relative="1" as="geometry">
            <mxPoint as="offset" />
          </mxGeometry>
        </mxCell>
        <mxCell id="40smpWzc-tyRivoEmoME-12" value="1" style="edgeStyle=orthogonalEdgeStyle;rounded=0;orthogonalLoop=1;jettySize=auto;html=1;exitX=0.5;exitY=0;exitDx=0;exitDy=0;entryX=0.498;entryY=1.009;entryDx=0;entryDy=0;entryPerimeter=0;endArrow=open;endFill=0;" edge="1" parent="1" source="wBu85bXGG2CjQwWN3baM-50" target="wBu85bXGG2CjQwWN3baM-28">
          <mxGeometry x="0.5726" y="-10" relative="1" as="geometry">
            <mxPoint as="offset" />
          </mxGeometry>
        </mxCell>
        <mxCell id="40smpWzc-tyRivoEmoME-13" value="1" style="edgeStyle=orthogonalEdgeStyle;rounded=0;orthogonalLoop=1;jettySize=auto;html=1;exitX=1;exitY=0.5;exitDx=0;exitDy=0;entryX=0;entryY=0.5;entryDx=0;entryDy=0;startArrow=diamondThin;startFill=1;endArrow=open;endFill=0;" edge="1" parent="1" source="wBu85bXGG2CjQwWN3baM-91" target="wBu85bXGG2CjQwWN3baM-86">
          <mxGeometry x="0.8165" y="-15" relative="1" as="geometry">
            <mxPoint as="offset" />
          </mxGeometry>
        </mxCell>
        <mxCell id="40smpWzc-tyRivoEmoME-17" value="0..*" style="edgeStyle=orthogonalEdgeStyle;rounded=0;orthogonalLoop=1;jettySize=auto;html=1;exitX=0;exitY=0.5;exitDx=0;exitDy=0;entryX=1;entryY=0.5;entryDx=0;entryDy=0;dashed=1;endArrow=open;endFill=0;" edge="1" parent="1" source="wBu85bXGG2CjQwWN3baM-91" target="wBu85bXGG2CjQwWN3baM-68">
          <mxGeometry x="0.9587" y="-17" relative="1" as="geometry">
            <mxPoint as="offset" />
          </mxGeometry>
        </mxCell>
        <mxCell id="40smpWzc-tyRivoEmoME-18" value="Paticipates in" style="text;html=1;align=center;verticalAlign=middle;resizable=0;points=[];autosize=1;strokeColor=none;fillColor=none;rotation=90;" vertex="1" parent="1">
          <mxGeometry x="720" y="890" width="90" height="30" as="geometry" />
        </mxCell>
        <mxCell id="40smpWzc-tyRivoEmoME-19" value="1" style="endArrow=open;html=1;rounded=0;endFill=0;dashed=1;" edge="1" parent="1" source="wBu85bXGG2CjQwWN3baM-80" target="wBu85bXGG2CjQwWN3baM-50">
          <mxGeometry x="0.8353" y="-13" width="50" height="50" relative="1" as="geometry">
            <mxPoint x="840" y="770" as="sourcePoint" />
            <mxPoint x="870" y="740" as="targetPoint" />
            <Array as="points">
              <mxPoint x="840" y="810" />
            </Array>
            <mxPoint as="offset" />
          </mxGeometry>
        </mxCell>
        <mxCell id="40smpWzc-tyRivoEmoME-20" value="Is sent to" style="text;html=1;align=center;verticalAlign=middle;resizable=0;points=[];autosize=1;strokeColor=none;fillColor=none;rotation=90;" vertex="1" parent="1">
          <mxGeometry x="820" y="710" width="70" height="30" as="geometry" />
        </mxCell>
        <mxCell id="40smpWzc-tyRivoEmoME-21" value="1" style="edgeStyle=orthogonalEdgeStyle;rounded=0;orthogonalLoop=1;jettySize=auto;html=1;entryX=0.5;entryY=0;entryDx=0;entryDy=0;endArrow=open;endFill=0;" edge="1" parent="1" source="wBu85bXGG2CjQwWN3baM-80" target="wBu85bXGG2CjQwWN3baM-27">
          <mxGeometry x="0.8943" y="15" relative="1" as="geometry">
            <Array as="points">
              <mxPoint x="880" y="700" />
              <mxPoint x="975" y="700" />
            </Array>
            <mxPoint as="offset" />
          </mxGeometry>
        </mxCell>
        <mxCell id="40smpWzc-tyRivoEmoME-22" value="1" style="edgeStyle=orthogonalEdgeStyle;rounded=0;orthogonalLoop=1;jettySize=auto;html=1;exitX=0.89;exitY=-0.001;exitDx=0;exitDy=0;endArrow=open;endFill=0;exitPerimeter=0;" edge="1" parent="1" source="wBu85bXGG2CjQwWN3baM-50" target="wBu85bXGG2CjQwWN3baM-44">
          <mxGeometry x="0.8784" y="10" relative="1" as="geometry">
            <Array as="points">
              <mxPoint x="1080" y="730" />
              <mxPoint x="1080" y="730" />
            </Array>
            <mxPoint as="offset" />
          </mxGeometry>
        </mxCell>
        <mxCell id="40smpWzc-tyRivoEmoME-23" value="0..*" style="edgeStyle=orthogonalEdgeStyle;rounded=0;orthogonalLoop=1;jettySize=auto;html=1;entryX=0;entryY=0.5;entryDx=0;entryDy=0;endArrow=open;endFill=0;" edge="1" parent="1" source="wBu85bXGG2CjQwWN3baM-22" target="wBu85bXGG2CjQwWN3baM-27">
          <mxGeometry x="0.9211" y="15" relative="1" as="geometry">
            <Array as="points">
              <mxPoint x="570" y="815" />
            </Array>
            <mxPoint as="offset" />
          </mxGeometry>
        </mxCell>
        <mxCell id="wBu85bXGG2CjQwWN3baM-1" value="&amp;lt;&amp;lt;aggregate&amp;gt;&amp;gt;&lt;div&gt;Event&lt;/div&gt;" style="swimlane;fontStyle=1;align=center;verticalAlign=top;childLayout=stackLayout;horizontal=1;startSize=40;horizontalStack=0;resizeParent=1;resizeParentMax=0;resizeLast=0;collapsible=1;marginBottom=0;whiteSpace=wrap;html=1;fillColor=#d5e8d4;strokeColor=#82b366;" parent="1" vertex="1">
          <mxGeometry x="310" y="196" width="350" height="586" as="geometry" />
        </mxCell>
        <mxCell id="wBu85bXGG2CjQwWN3baM-2" value="+ Id: EventId" style="text;strokeColor=#82b366;fillColor=#d5e8d4;align=left;verticalAlign=top;spacingLeft=4;spacingRight=4;overflow=hidden;rotatable=0;points=[[0,0.5],[1,0.5]];portConstraint=eastwest;whiteSpace=wrap;html=1;" parent="wBu85bXGG2CjQwWN3baM-1" vertex="1">
          <mxGeometry y="40" width="350" height="26" as="geometry" />
        </mxCell>
        <mxCell id="wBu85bXGG2CjQwWN3baM-19" value="- title: EventTitle" style="text;strokeColor=#82b366;fillColor=#d5e8d4;align=left;verticalAlign=top;spacingLeft=4;spacingRight=4;overflow=hidden;rotatable=0;points=[[0,0.5],[1,0.5]];portConstraint=eastwest;whiteSpace=wrap;html=1;" parent="wBu85bXGG2CjQwWN3baM-1" vertex="1">
          <mxGeometry y="66" width="350" height="26" as="geometry" />
        </mxCell>
        <mxCell id="wBu85bXGG2CjQwWN3baM-20" value="- description: EventDescription" style="text;strokeColor=#82b366;fillColor=#d5e8d4;align=left;verticalAlign=top;spacingLeft=4;spacingRight=4;overflow=hidden;rotatable=0;points=[[0,0.5],[1,0.5]];portConstraint=eastwest;whiteSpace=wrap;html=1;" parent="wBu85bXGG2CjQwWN3baM-1" vertex="1">
          <mxGeometry y="92" width="350" height="26" as="geometry" />
        </mxCell>
        <mxCell id="wBu85bXGG2CjQwWN3baM-18" value="- startDateTime: DateTime" style="text;strokeColor=#82b366;fillColor=#d5e8d4;align=left;verticalAlign=top;spacingLeft=4;spacingRight=4;overflow=hidden;rotatable=0;points=[[0,0.5],[1,0.5]];portConstraint=eastwest;whiteSpace=wrap;html=1;" parent="wBu85bXGG2CjQwWN3baM-1" vertex="1">
          <mxGeometry y="118" width="350" height="26" as="geometry" />
        </mxCell>
        <mxCell id="wBu85bXGG2CjQwWN3baM-17" value="- endDateTime: DateTime" style="text;strokeColor=#82b366;fillColor=#d5e8d4;align=left;verticalAlign=top;spacingLeft=4;spacingRight=4;overflow=hidden;rotatable=0;points=[[0,0.5],[1,0.5]];portConstraint=eastwest;whiteSpace=wrap;html=1;" parent="wBu85bXGG2CjQwWN3baM-1" vertex="1">
          <mxGeometry y="144" width="350" height="26" as="geometry" />
        </mxCell>
        <mxCell id="wBu85bXGG2CjQwWN3baM-21" value="- visibility: EventVisibility" style="text;strokeColor=#82b366;fillColor=#d5e8d4;align=left;verticalAlign=top;spacingLeft=4;spacingRight=4;overflow=hidden;rotatable=0;points=[[0,0.5],[1,0.5]];portConstraint=eastwest;whiteSpace=wrap;html=1;" parent="wBu85bXGG2CjQwWN3baM-1" vertex="1">
          <mxGeometry y="170" width="350" height="26" as="geometry" />
        </mxCell>
        <mxCell id="wBu85bXGG2CjQwWN3baM-30" value="- status: EventStatus" style="text;strokeColor=#82b366;fillColor=#d5e8d4;align=left;verticalAlign=top;spacingLeft=4;spacingRight=4;overflow=hidden;rotatable=0;points=[[0,0.5],[1,0.5]];portConstraint=eastwest;whiteSpace=wrap;html=1;" parent="wBu85bXGG2CjQwWN3baM-1" vertex="1">
          <mxGeometry y="196" width="350" height="26" as="geometry" />
        </mxCell>
        <mxCell id="wBu85bXGG2CjQwWN3baM-33" value="- participants: EventParticipants" style="text;strokeColor=#82b366;fillColor=#d5e8d4;align=left;verticalAlign=top;spacingLeft=4;spacingRight=4;overflow=hidden;rotatable=0;points=[[0,0.5],[1,0.5]];portConstraint=eastwest;whiteSpace=wrap;html=1;" parent="wBu85bXGG2CjQwWN3baM-1" vertex="1">
          <mxGeometry y="222" width="350" height="26" as="geometry" />
        </mxCell>
        <mxCell id="wBu85bXGG2CjQwWN3baM-34" value="- invitations: EventInvitations" style="text;strokeColor=#82b366;fillColor=#d5e8d4;align=left;verticalAlign=top;spacingLeft=4;spacingRight=4;overflow=hidden;rotatable=0;points=[[0,0.5],[1,0.5]];portConstraint=eastwest;whiteSpace=wrap;html=1;" parent="wBu85bXGG2CjQwWN3baM-1" vertex="1">
          <mxGeometry y="248" width="350" height="26" as="geometry" />
        </mxCell>
        <mxCell id="wBu85bXGG2CjQwWN3baM-3" value="" style="line;strokeWidth=1;fillColor=#d5e8d4;align=left;verticalAlign=middle;spacingTop=-1;spacingLeft=3;spacingRight=3;rotatable=0;labelPosition=right;points=[];portConstraint=eastwest;strokeColor=#82b366;" parent="wBu85bXGG2CjQwWN3baM-1" vertex="1">
          <mxGeometry y="274" width="350" height="8" as="geometry" />
        </mxCell>
        <mxCell id="wBu85bXGG2CjQwWN3baM-4" value="+ AddParticipant(guest: GuestId): void" style="text;strokeColor=#82b366;fillColor=#d5e8d4;align=left;verticalAlign=top;spacingLeft=4;spacingRight=4;overflow=hidden;rotatable=0;points=[[0,0.5],[1,0.5]];portConstraint=eastwest;whiteSpace=wrap;html=1;" parent="wBu85bXGG2CjQwWN3baM-1" vertex="1">
          <mxGeometry y="282" width="350" height="26" as="geometry" />
        </mxCell>
        <mxCell id="wBu85bXGG2CjQwWN3baM-58" value="+ SendInvitation(guest: GuestId): void" style="text;strokeColor=#82b366;fillColor=#d5e8d4;align=left;verticalAlign=top;spacingLeft=4;spacingRight=4;overflow=hidden;rotatable=0;points=[[0,0.5],[1,0.5]];portConstraint=eastwest;whiteSpace=wrap;html=1;" parent="wBu85bXGG2CjQwWN3baM-1" vertex="1">
          <mxGeometry y="308" width="350" height="26" as="geometry" />
        </mxCell>
        <mxCell id="wBu85bXGG2CjQwWN3baM-60" value="+ UpdateTitle(title: EventTitle): void" style="text;strokeColor=#82b366;fillColor=#d5e8d4;align=left;verticalAlign=top;spacingLeft=4;spacingRight=4;overflow=hidden;rotatable=0;points=[[0,0.5],[1,0.5]];portConstraint=eastwest;whiteSpace=wrap;html=1;" parent="wBu85bXGG2CjQwWN3baM-1" vertex="1">
          <mxGeometry y="334" width="350" height="26" as="geometry" />
        </mxCell>
        <mxCell id="wBu85bXGG2CjQwWN3baM-61" value="+ UpdateDescription(description: EventDescription): void" style="text;strokeColor=#82b366;fillColor=#d5e8d4;align=left;verticalAlign=top;spacingLeft=4;spacingRight=4;overflow=hidden;rotatable=0;points=[[0,0.5],[1,0.5]];portConstraint=eastwest;whiteSpace=wrap;html=1;" parent="wBu85bXGG2CjQwWN3baM-1" vertex="1">
          <mxGeometry y="360" width="350" height="30" as="geometry" />
        </mxCell>
        <mxCell id="wBu85bXGG2CjQwWN3baM-63" value="+ UpdateTime(startDateTime: DateTime,&amp;nbsp;&lt;div&gt;&lt;span style=&quot;white-space: pre;&quot;&gt;&#x9;&lt;/span&gt;&lt;span style=&quot;white-space: pre;&quot;&gt;&#x9;&lt;/span&gt;&lt;span style=&quot;white-space: pre;&quot;&gt;&#x9;&lt;/span&gt;endDateTime: DateTime): void&lt;/div&gt;" style="text;strokeColor=#82b366;fillColor=#d5e8d4;align=left;verticalAlign=top;spacingLeft=4;spacingRight=4;overflow=hidden;rotatable=0;points=[[0,0.5],[1,0.5]];portConstraint=eastwest;whiteSpace=wrap;html=1;" parent="wBu85bXGG2CjQwWN3baM-1" vertex="1">
          <mxGeometry y="390" width="350" height="40" as="geometry" />
        </mxCell>
        <mxCell id="wBu85bXGG2CjQwWN3baM-62" value="+ SetVisibility(visibility: EventVisiblity): void" style="text;strokeColor=#82b366;fillColor=#d5e8d4;align=left;verticalAlign=top;spacingLeft=4;spacingRight=4;overflow=hidden;rotatable=0;points=[[0,0.5],[1,0.5]];portConstraint=eastwest;whiteSpace=wrap;html=1;" parent="wBu85bXGG2CjQwWN3baM-1" vertex="1">
          <mxGeometry y="430" width="350" height="26" as="geometry" />
        </mxCell>
        <mxCell id="wBu85bXGG2CjQwWN3baM-64" value="+ SetMaxGuests(maxGuests: int): void" style="text;strokeColor=#82b366;fillColor=#d5e8d4;align=left;verticalAlign=top;spacingLeft=4;spacingRight=4;overflow=hidden;rotatable=0;points=[[0,0.5],[1,0.5]];portConstraint=eastwest;whiteSpace=wrap;html=1;" parent="wBu85bXGG2CjQwWN3baM-1" vertex="1">
          <mxGeometry y="456" width="350" height="26" as="geometry" />
        </mxCell>
        <mxCell id="wBu85bXGG2CjQwWN3baM-67" value="+ ReadyEvent(): void" style="text;strokeColor=#82b366;fillColor=#d5e8d4;align=left;verticalAlign=top;spacingLeft=4;spacingRight=4;overflow=hidden;rotatable=0;points=[[0,0.5],[1,0.5]];portConstraint=eastwest;whiteSpace=wrap;html=1;" parent="wBu85bXGG2CjQwWN3baM-1" vertex="1">
          <mxGeometry y="482" width="350" height="26" as="geometry" />
        </mxCell>
        <mxCell id="wBu85bXGG2CjQwWN3baM-68" value="+ ActivateEvent(): void" style="text;strokeColor=#82b366;fillColor=#d5e8d4;align=left;verticalAlign=top;spacingLeft=4;spacingRight=4;overflow=hidden;rotatable=0;points=[[0,0.5],[1,0.5]];portConstraint=eastwest;whiteSpace=wrap;html=1;" parent="wBu85bXGG2CjQwWN3baM-1" vertex="1">
          <mxGeometry y="508" width="350" height="26" as="geometry" />
        </mxCell>
        <mxCell id="wBu85bXGG2CjQwWN3baM-69" value="+ AcceptInvitation(invitationId: InvitationId): void" style="text;strokeColor=#82b366;fillColor=#d5e8d4;align=left;verticalAlign=top;spacingLeft=4;spacingRight=4;overflow=hidden;rotatable=0;points=[[0,0.5],[1,0.5]];portConstraint=eastwest;whiteSpace=wrap;html=1;" parent="wBu85bXGG2CjQwWN3baM-1" vertex="1">
          <mxGeometry y="534" width="350" height="26" as="geometry" />
        </mxCell>
        <mxCell id="wBu85bXGG2CjQwWN3baM-70" value="+ DeclineInvitation(invitaitonId: InvitationId): void" style="text;strokeColor=#82b366;fillColor=#d5e8d4;align=left;verticalAlign=top;spacingLeft=4;spacingRight=4;overflow=hidden;rotatable=0;points=[[0,0.5],[1,0.5]];portConstraint=eastwest;whiteSpace=wrap;html=1;" parent="wBu85bXGG2CjQwWN3baM-1" vertex="1">
          <mxGeometry y="560" width="350" height="26" as="geometry" />
        </mxCell>
        <mxCell id="wBu85bXGG2CjQwWN3baM-22" value="&amp;lt;&amp;lt;entity&amp;gt;&amp;gt;&lt;div&gt;EventParticipants&lt;/div&gt;" style="swimlane;fontStyle=1;align=center;verticalAlign=top;childLayout=stackLayout;horizontal=1;startSize=40;horizontalStack=0;resizeParent=1;resizeParentMax=0;resizeLast=0;collapsible=1;marginBottom=0;whiteSpace=wrap;html=1;fillColor=#dae8fc;strokeColor=#6c8ebf;" parent="1" vertex="1">
          <mxGeometry x="370" y="860" width="230" height="178" as="geometry" />
        </mxCell>
        <mxCell id="wBu85bXGG2CjQwWN3baM-23" value="- maxGuests: int" style="text;strokeColor=#6c8ebf;fillColor=#dae8fc;align=left;verticalAlign=top;spacingLeft=4;spacingRight=4;overflow=hidden;rotatable=0;points=[[0,0.5],[1,0.5]];portConstraint=eastwest;whiteSpace=wrap;html=1;" parent="wBu85bXGG2CjQwWN3baM-22" vertex="1">
          <mxGeometry y="40" width="230" height="26" as="geometry" />
        </mxCell>
        <mxCell id="wBu85bXGG2CjQwWN3baM-26" value="- participants: List&amp;lt;GuestId&amp;gt;" style="text;strokeColor=#6c8ebf;fillColor=#dae8fc;align=left;verticalAlign=top;spacingLeft=4;spacingRight=4;overflow=hidden;rotatable=0;points=[[0,0.5],[1,0.5]];portConstraint=eastwest;whiteSpace=wrap;html=1;" parent="wBu85bXGG2CjQwWN3baM-22" vertex="1">
          <mxGeometry y="66" width="230" height="26" as="geometry" />
        </mxCell>
        <mxCell id="wBu85bXGG2CjQwWN3baM-24" value="" style="line;strokeWidth=1;fillColor=#dae8fc;align=left;verticalAlign=middle;spacingTop=-1;spacingLeft=3;spacingRight=3;rotatable=0;labelPosition=right;points=[];portConstraint=eastwest;strokeColor=#6c8ebf;" parent="wBu85bXGG2CjQwWN3baM-22" vertex="1">
          <mxGeometry y="92" width="230" height="8" as="geometry" />
        </mxCell>
        <mxCell id="wBu85bXGG2CjQwWN3baM-25" value="+ AddParticipant(guest: GuestId): void" style="text;strokeColor=#6c8ebf;fillColor=#dae8fc;align=left;verticalAlign=top;spacingLeft=4;spacingRight=4;overflow=hidden;rotatable=0;points=[[0,0.5],[1,0.5]];portConstraint=eastwest;whiteSpace=wrap;html=1;" parent="wBu85bXGG2CjQwWN3baM-22" vertex="1">
          <mxGeometry y="100" width="230" height="26" as="geometry" />
        </mxCell>
        <mxCell id="wBu85bXGG2CjQwWN3baM-29" value="+ GetParticipants(): List&amp;lt;GuestId&amp;gt;" style="text;strokeColor=#6c8ebf;fillColor=#dae8fc;align=left;verticalAlign=top;spacingLeft=4;spacingRight=4;overflow=hidden;rotatable=0;points=[[0,0.5],[1,0.5]];portConstraint=eastwest;whiteSpace=wrap;html=1;" parent="wBu85bXGG2CjQwWN3baM-22" vertex="1">
          <mxGeometry y="126" width="230" height="26" as="geometry" />
        </mxCell>
        <mxCell id="wBu85bXGG2CjQwWN3baM-66" value="+ SetMaxGuests(maxGuests: int): void" style="text;strokeColor=#6c8ebf;fillColor=#dae8fc;align=left;verticalAlign=top;spacingLeft=4;spacingRight=4;overflow=hidden;rotatable=0;points=[[0,0.5],[1,0.5]];portConstraint=eastwest;whiteSpace=wrap;html=1;" parent="wBu85bXGG2CjQwWN3baM-22" vertex="1">
          <mxGeometry y="152" width="230" height="26" as="geometry" />
        </mxCell>
        <mxCell id="wBu85bXGG2CjQwWN3baM-9" value="&lt;b&gt;&amp;lt;&amp;lt;value&amp;gt;&amp;gt;&lt;/b&gt;&lt;div&gt;&lt;b&gt;EventTitle&lt;/b&gt;&lt;/div&gt;" style="swimlane;fontStyle=0;childLayout=stackLayout;horizontal=1;startSize=40;fillColor=#ffe6cc;horizontalStack=0;resizeParent=1;resizeParentMax=0;resizeLast=0;collapsible=1;marginBottom=0;whiteSpace=wrap;html=1;strokeColor=#d79b00;" parent="1" vertex="1">
          <mxGeometry x="100" y="196" width="140" height="66" as="geometry" />
        </mxCell>
        <mxCell id="wBu85bXGG2CjQwWN3baM-10" value="+ title: string" style="text;strokeColor=#d79b00;fillColor=#ffe6cc;align=left;verticalAlign=top;spacingLeft=4;spacingRight=4;overflow=hidden;rotatable=0;points=[[0,0.5],[1,0.5]];portConstraint=eastwest;whiteSpace=wrap;html=1;" parent="wBu85bXGG2CjQwWN3baM-9" vertex="1">
          <mxGeometry y="40" width="140" height="26" as="geometry" />
        </mxCell>
        <mxCell id="wBu85bXGG2CjQwWN3baM-11" value="&lt;b&gt;&amp;lt;&amp;lt;value&amp;gt;&amp;gt;&lt;/b&gt;&lt;div&gt;&lt;b&gt;EventDescription&lt;/b&gt;&lt;/div&gt;" style="swimlane;fontStyle=0;childLayout=stackLayout;horizontal=1;startSize=40;fillColor=#ffe6cc;horizontalStack=0;resizeParent=1;resizeParentMax=0;resizeLast=0;collapsible=1;marginBottom=0;whiteSpace=wrap;html=1;strokeColor=#d79b00;" parent="1" vertex="1">
          <mxGeometry x="100" y="306" width="140" height="66" as="geometry" />
        </mxCell>
        <mxCell id="wBu85bXGG2CjQwWN3baM-12" value="+ description: string" style="text;strokeColor=#d79b00;fillColor=#ffe6cc;align=left;verticalAlign=top;spacingLeft=4;spacingRight=4;overflow=hidden;rotatable=0;points=[[0,0.5],[1,0.5]];portConstraint=eastwest;whiteSpace=wrap;html=1;" parent="wBu85bXGG2CjQwWN3baM-11" vertex="1">
          <mxGeometry y="40" width="140" height="26" as="geometry" />
        </mxCell>
        <mxCell id="wBu85bXGG2CjQwWN3baM-13" value="&lt;b&gt;&amp;lt;&amp;lt;enum&amp;gt;&amp;gt;&lt;/b&gt;&lt;div&gt;&lt;b&gt;EventVisibility&lt;/b&gt;&lt;/div&gt;" style="swimlane;fontStyle=0;childLayout=stackLayout;horizontal=1;startSize=40;fillColor=#e1d5e7;horizontalStack=0;resizeParent=1;resizeParentMax=0;resizeLast=0;collapsible=1;marginBottom=0;whiteSpace=wrap;html=1;strokeColor=#9673a6;" parent="1" vertex="1">
          <mxGeometry x="100" y="420" width="140" height="80" as="geometry" />
        </mxCell>
        <mxCell id="wBu85bXGG2CjQwWN3baM-14" value="PUBLIC&lt;div&gt;PRIVATE&lt;/div&gt;" style="text;strokeColor=#d79b00;fillColor=#ffe6cc;align=left;verticalAlign=top;spacingLeft=4;spacingRight=4;overflow=hidden;rotatable=0;points=[[0,0.5],[1,0.5]];portConstraint=eastwest;whiteSpace=wrap;html=1;" parent="wBu85bXGG2CjQwWN3baM-13" vertex="1">
          <mxGeometry y="40" width="140" height="40" as="geometry" />
        </mxCell>
        <mxCell id="wBu85bXGG2CjQwWN3baM-31" value="&lt;b&gt;&amp;lt;&amp;lt;enum&amp;gt;&amp;gt;&lt;/b&gt;&lt;div&gt;&lt;b&gt;EventStatus&lt;/b&gt;&lt;/div&gt;" style="swimlane;fontStyle=0;childLayout=stackLayout;horizontal=1;startSize=40;fillColor=#e1d5e7;horizontalStack=0;resizeParent=1;resizeParentMax=0;resizeLast=0;collapsible=1;marginBottom=0;whiteSpace=wrap;html=1;strokeColor=#9673a6;" parent="1" vertex="1">
          <mxGeometry x="100" y="549" width="140" height="100" as="geometry" />
        </mxCell>
        <mxCell id="wBu85bXGG2CjQwWN3baM-32" value="CREATED&lt;div&gt;READY&lt;/div&gt;&lt;div&gt;ACTIVE&lt;/div&gt;" style="text;strokeColor=#d79b00;fillColor=#ffe6cc;align=left;verticalAlign=top;spacingLeft=4;spacingRight=4;overflow=hidden;rotatable=0;points=[[0,0.5],[1,0.5]];portConstraint=eastwest;whiteSpace=wrap;html=1;" parent="wBu85bXGG2CjQwWN3baM-31" vertex="1">
          <mxGeometry y="40" width="140" height="60" as="geometry" />
        </mxCell>
        <mxCell id="wBu85bXGG2CjQwWN3baM-5" value="&lt;b&gt;&amp;lt;&amp;lt;value&amp;gt;&amp;gt;&lt;/b&gt;&lt;div&gt;&lt;b&gt;EventId&lt;/b&gt;&lt;/div&gt;" style="swimlane;fontStyle=0;childLayout=stackLayout;horizontal=1;startSize=40;fillColor=#ffe6cc;horizontalStack=0;resizeParent=1;resizeParentMax=0;resizeLast=0;collapsible=1;marginBottom=0;whiteSpace=wrap;html=1;strokeColor=#d79b00;" parent="1" vertex="1">
          <mxGeometry x="415" y="50" width="140" height="66" as="geometry" />
        </mxCell>
        <mxCell id="wBu85bXGG2CjQwWN3baM-6" value="+ id: UUID" style="text;strokeColor=#d79b00;fillColor=#ffe6cc;align=left;verticalAlign=top;spacingLeft=4;spacingRight=4;overflow=hidden;rotatable=0;points=[[0,0.5],[1,0.5]];portConstraint=eastwest;whiteSpace=wrap;html=1;" parent="wBu85bXGG2CjQwWN3baM-5" vertex="1">
          <mxGeometry y="40" width="140" height="26" as="geometry" />
        </mxCell>
        <mxCell id="wBu85bXGG2CjQwWN3baM-35" value="&lt;div&gt;&amp;lt;&amp;lt;entity&amp;gt;&amp;gt;&lt;/div&gt;&lt;div&gt;EventInvitations&lt;/div&gt;" style="swimlane;fontStyle=1;align=center;verticalAlign=top;childLayout=stackLayout;horizontal=1;startSize=40;horizontalStack=0;resizeParent=1;resizeParentMax=0;resizeLast=0;collapsible=1;marginBottom=0;whiteSpace=wrap;html=1;fillColor=#dae8fc;strokeColor=#6c8ebf;" parent="1" vertex="1">
          <mxGeometry x="783.75" y="210" width="277.5" height="126" as="geometry" />
        </mxCell>
        <mxCell id="wBu85bXGG2CjQwWN3baM-36" value="+ Invitations: List&amp;lt;Invitation&amp;gt;" style="text;strokeColor=#6c8ebf;fillColor=#dae8fc;align=left;verticalAlign=top;spacingLeft=4;spacingRight=4;overflow=hidden;rotatable=0;points=[[0,0.5],[1,0.5]];portConstraint=eastwest;whiteSpace=wrap;html=1;" parent="wBu85bXGG2CjQwWN3baM-35" vertex="1">
          <mxGeometry y="40" width="277.5" height="26" as="geometry" />
        </mxCell>
        <mxCell id="wBu85bXGG2CjQwWN3baM-38" value="" style="line;strokeWidth=1;fillColor=#dae8fc;align=left;verticalAlign=middle;spacingTop=-1;spacingLeft=3;spacingRight=3;rotatable=0;labelPosition=right;points=[];portConstraint=eastwest;strokeColor=#6c8ebf;" parent="wBu85bXGG2CjQwWN3baM-35" vertex="1">
          <mxGeometry y="66" width="277.5" height="8" as="geometry" />
        </mxCell>
        <mxCell id="wBu85bXGG2CjQwWN3baM-39" value="+ AcceptInvitation(invitationId: InvitationId): void" style="text;strokeColor=#6c8ebf;fillColor=#dae8fc;align=left;verticalAlign=top;spacingLeft=4;spacingRight=4;overflow=hidden;rotatable=0;points=[[0,0.5],[1,0.5]];portConstraint=eastwest;whiteSpace=wrap;html=1;" parent="wBu85bXGG2CjQwWN3baM-35" vertex="1">
          <mxGeometry y="74" width="277.5" height="26" as="geometry" />
        </mxCell>
        <mxCell id="wBu85bXGG2CjQwWN3baM-54" value="+ DeclineInvitation(invitationId: InvitationId): void" style="text;strokeColor=#6c8ebf;fillColor=#dae8fc;align=left;verticalAlign=top;spacingLeft=4;spacingRight=4;overflow=hidden;rotatable=0;points=[[0,0.5],[1,0.5]];portConstraint=eastwest;whiteSpace=wrap;html=1;" parent="wBu85bXGG2CjQwWN3baM-35" vertex="1">
          <mxGeometry y="100" width="277.5" height="26" as="geometry" />
        </mxCell>
        <mxCell id="wBu85bXGG2CjQwWN3baM-43" value="&lt;b&gt;&amp;lt;&amp;lt;value&amp;gt;&amp;gt;&lt;/b&gt;&lt;div&gt;&lt;b&gt;InvitationId&lt;/b&gt;&lt;/div&gt;" style="swimlane;fontStyle=0;childLayout=stackLayout;horizontal=1;startSize=40;fillColor=#ffe6cc;horizontalStack=0;resizeParent=1;resizeParentMax=0;resizeLast=0;collapsible=1;marginBottom=0;whiteSpace=wrap;html=1;strokeColor=#d79b00;" parent="1" vertex="1">
          <mxGeometry x="983.75" y="583" width="140" height="66" as="geometry" />
        </mxCell>
        <mxCell id="wBu85bXGG2CjQwWN3baM-44" value="+ id: UUID" style="text;strokeColor=#d79b00;fillColor=#ffe6cc;align=left;verticalAlign=top;spacingLeft=4;spacingRight=4;overflow=hidden;rotatable=0;points=[[0,0.5],[1,0.5]];portConstraint=eastwest;whiteSpace=wrap;html=1;" parent="wBu85bXGG2CjQwWN3baM-43" vertex="1">
          <mxGeometry y="40" width="140" height="26" as="geometry" />
        </mxCell>
        <mxCell id="wBu85bXGG2CjQwWN3baM-47" value="&lt;b&gt;&amp;lt;&amp;lt;enum&amp;gt;&amp;gt;&lt;/b&gt;&lt;div&gt;&lt;b&gt;InvitationStatus&lt;/b&gt;&lt;/div&gt;" style="swimlane;fontStyle=0;childLayout=stackLayout;horizontal=1;startSize=40;fillColor=#e1d5e7;horizontalStack=0;resizeParent=1;resizeParentMax=0;resizeLast=0;collapsible=1;marginBottom=0;whiteSpace=wrap;html=1;strokeColor=#9673a6;" parent="1" vertex="1">
          <mxGeometry x="983.75" y="456" width="140" height="100" as="geometry" />
        </mxCell>
        <mxCell id="wBu85bXGG2CjQwWN3baM-48" value="PENDING&lt;div&gt;ACCEPTED&lt;/div&gt;&lt;div&gt;DECLINED&lt;/div&gt;" style="text;strokeColor=#d79b00;fillColor=#ffe6cc;align=left;verticalAlign=top;spacingLeft=4;spacingRight=4;overflow=hidden;rotatable=0;points=[[0,0.5],[1,0.5]];portConstraint=eastwest;whiteSpace=wrap;html=1;" parent="wBu85bXGG2CjQwWN3baM-47" vertex="1">
          <mxGeometry y="40" width="140" height="60" as="geometry" />
        </mxCell>
        <mxCell id="wBu85bXGG2CjQwWN3baM-71" value="&amp;lt;&amp;lt;entity&amp;gt;&amp;gt;&lt;div&gt;Invitation&lt;/div&gt;" style="swimlane;fontStyle=1;align=center;verticalAlign=top;childLayout=stackLayout;horizontal=1;startSize=40;horizontalStack=0;resizeParent=1;resizeParentMax=0;resizeLast=0;collapsible=1;marginBottom=0;whiteSpace=wrap;html=1;fillColor=#dae8fc;strokeColor=#6c8ebf;" parent="1" vertex="1">
          <mxGeometry x="760" y="456" width="160" height="204" as="geometry" />
        </mxCell>
        <mxCell id="wBu85bXGG2CjQwWN3baM-75" value="+ Id: InvitationId" style="text;strokeColor=#6c8ebf;fillColor=#dae8fc;align=left;verticalAlign=top;spacingLeft=4;spacingRight=4;overflow=hidden;rotatable=0;points=[[0,0.5],[1,0.5]];portConstraint=eastwest;whiteSpace=wrap;html=1;" parent="wBu85bXGG2CjQwWN3baM-71" vertex="1">
          <mxGeometry y="40" width="160" height="26" as="geometry" />
        </mxCell>
        <mxCell id="wBu85bXGG2CjQwWN3baM-76" value="- eventId: EventId" style="text;strokeColor=#6c8ebf;fillColor=#dae8fc;align=left;verticalAlign=top;spacingLeft=4;spacingRight=4;overflow=hidden;rotatable=0;points=[[0,0.5],[1,0.5]];portConstraint=eastwest;whiteSpace=wrap;html=1;" parent="wBu85bXGG2CjQwWN3baM-71" vertex="1">
          <mxGeometry y="66" width="160" height="26" as="geometry" />
        </mxCell>
        <mxCell id="wBu85bXGG2CjQwWN3baM-78" value="- status: InvitationStatus" style="text;strokeColor=#6c8ebf;fillColor=#dae8fc;align=left;verticalAlign=top;spacingLeft=4;spacingRight=4;overflow=hidden;rotatable=0;points=[[0,0.5],[1,0.5]];portConstraint=eastwest;whiteSpace=wrap;html=1;" parent="wBu85bXGG2CjQwWN3baM-71" vertex="1">
          <mxGeometry y="92" width="160" height="26" as="geometry" />
        </mxCell>
        <mxCell id="wBu85bXGG2CjQwWN3baM-77" value="- guestId: GuestId" style="text;strokeColor=#6c8ebf;fillColor=#dae8fc;align=left;verticalAlign=top;spacingLeft=4;spacingRight=4;overflow=hidden;rotatable=0;points=[[0,0.5],[1,0.5]];portConstraint=eastwest;whiteSpace=wrap;html=1;" parent="wBu85bXGG2CjQwWN3baM-71" vertex="1">
          <mxGeometry y="118" width="160" height="26" as="geometry" />
        </mxCell>
        <mxCell id="wBu85bXGG2CjQwWN3baM-73" value="" style="line;strokeWidth=1;fillColor=#dae8fc;align=left;verticalAlign=middle;spacingTop=-1;spacingLeft=3;spacingRight=3;rotatable=0;labelPosition=right;points=[];portConstraint=eastwest;strokeColor=#6c8ebf;" parent="wBu85bXGG2CjQwWN3baM-71" vertex="1">
          <mxGeometry y="144" width="160" height="8" as="geometry" />
        </mxCell>
        <mxCell id="wBu85bXGG2CjQwWN3baM-79" value="+ AcceptInvitation(): void" style="text;strokeColor=#6c8ebf;fillColor=#dae8fc;align=left;verticalAlign=top;spacingLeft=4;spacingRight=4;overflow=hidden;rotatable=0;points=[[0,0.5],[1,0.5]];portConstraint=eastwest;whiteSpace=wrap;html=1;" parent="wBu85bXGG2CjQwWN3baM-71" vertex="1">
          <mxGeometry y="152" width="160" height="26" as="geometry" />
        </mxCell>
        <mxCell id="wBu85bXGG2CjQwWN3baM-80" value="+ DeclineInvitation(): void" style="text;strokeColor=#6c8ebf;fillColor=#dae8fc;align=left;verticalAlign=top;spacingLeft=4;spacingRight=4;overflow=hidden;rotatable=0;points=[[0,0.5],[1,0.5]];portConstraint=eastwest;whiteSpace=wrap;html=1;" parent="wBu85bXGG2CjQwWN3baM-71" vertex="1">
          <mxGeometry y="178" width="160" height="26" as="geometry" />
        </mxCell>
        <mxCell id="wBu85bXGG2CjQwWN3baM-83" value="&lt;b&gt;&amp;lt;&amp;lt;value&amp;gt;&amp;gt;&lt;/b&gt;&lt;div&gt;&lt;b&gt;UserName&lt;/b&gt;&lt;/div&gt;" style="swimlane;fontStyle=0;childLayout=stackLayout;horizontal=1;startSize=40;fillColor=#ffe6cc;horizontalStack=0;resizeParent=1;resizeParentMax=0;resizeLast=0;collapsible=1;marginBottom=0;whiteSpace=wrap;html=1;strokeColor=#d79b00;" parent="1" vertex="1">
          <mxGeometry x="1185" y="838" width="140" height="66" as="geometry" />
        </mxCell>
        <mxCell id="wBu85bXGG2CjQwWN3baM-84" value="+ Name: string" style="text;strokeColor=#d79b00;fillColor=#ffe6cc;align=left;verticalAlign=top;spacingLeft=4;spacingRight=4;overflow=hidden;rotatable=0;points=[[0,0.5],[1,0.5]];portConstraint=eastwest;whiteSpace=wrap;html=1;" parent="wBu85bXGG2CjQwWN3baM-83" vertex="1">
          <mxGeometry y="40" width="140" height="26" as="geometry" />
        </mxCell>
        <mxCell id="wBu85bXGG2CjQwWN3baM-93" value="&lt;b&gt;&amp;lt;&amp;lt;value&amp;gt;&amp;gt;&lt;/b&gt;&lt;div&gt;&lt;b&gt;UserEmail&lt;/b&gt;&lt;/div&gt;" style="swimlane;fontStyle=0;childLayout=stackLayout;horizontal=1;startSize=40;fillColor=#ffe6cc;horizontalStack=0;resizeParent=1;resizeParentMax=0;resizeLast=0;collapsible=1;marginBottom=0;whiteSpace=wrap;html=1;strokeColor=#d79b00;" parent="1" vertex="1">
          <mxGeometry x="1335" y="838" width="140" height="66" as="geometry" />
        </mxCell>
        <mxCell id="wBu85bXGG2CjQwWN3baM-94" value="+ Email: string" style="text;strokeColor=#d79b00;fillColor=#ffe6cc;align=left;verticalAlign=top;spacingLeft=4;spacingRight=4;overflow=hidden;rotatable=0;points=[[0,0.5],[1,0.5]];portConstraint=eastwest;whiteSpace=wrap;html=1;" parent="wBu85bXGG2CjQwWN3baM-93" vertex="1">
          <mxGeometry y="40" width="140" height="26" as="geometry" />
        </mxCell>
        <mxCell id="wBu85bXGG2CjQwWN3baM-27" value="&lt;b&gt;&amp;lt;&amp;lt;value&amp;gt;&amp;gt;&lt;/b&gt;&lt;div&gt;&lt;b&gt;GuestId&lt;/b&gt;&lt;/div&gt;" style="swimlane;fontStyle=0;childLayout=stackLayout;horizontal=1;startSize=40;fillColor=#ffe6cc;horizontalStack=0;resizeParent=1;resizeParentMax=0;resizeLast=0;collapsible=1;marginBottom=0;whiteSpace=wrap;html=1;strokeColor=#d79b00;" parent="1" vertex="1">
          <mxGeometry x="905" y="782" width="140" height="66" as="geometry" />
        </mxCell>
        <mxCell id="wBu85bXGG2CjQwWN3baM-28" value="+ id: UUID" style="text;strokeColor=#d79b00;fillColor=#ffe6cc;align=left;verticalAlign=top;spacingLeft=4;spacingRight=4;overflow=hidden;rotatable=0;points=[[0,0.5],[1,0.5]];portConstraint=eastwest;whiteSpace=wrap;html=1;" parent="wBu85bXGG2CjQwWN3baM-27" vertex="1">
          <mxGeometry y="40" width="140" height="26" as="geometry" />
        </mxCell>
        <mxCell id="wBu85bXGG2CjQwWN3baM-85" value="&amp;lt;&amp;lt;entity&amp;gt;&amp;gt;&lt;div&gt;User&lt;br&gt;&lt;div&gt;&lt;br&gt;&lt;/div&gt;&lt;/div&gt;" style="swimlane;fontStyle=1;align=center;verticalAlign=top;childLayout=stackLayout;horizontal=1;startSize=44;horizontalStack=0;resizeParent=1;resizeParentMax=0;resizeLast=0;collapsible=1;marginBottom=0;whiteSpace=wrap;html=1;fillColor=#dae8fc;strokeColor=#6c8ebf;" parent="1" vertex="1">
          <mxGeometry x="1215" y="960" width="180" height="104" as="geometry" />
        </mxCell>
        <mxCell id="wBu85bXGG2CjQwWN3baM-86" value="- name: UserName" style="text;strokeColor=#6c8ebf;fillColor=#dae8fc;align=left;verticalAlign=top;spacingLeft=4;spacingRight=4;overflow=hidden;rotatable=0;points=[[0,0.5],[1,0.5]];portConstraint=eastwest;whiteSpace=wrap;html=1;" parent="wBu85bXGG2CjQwWN3baM-85" vertex="1">
          <mxGeometry y="44" width="180" height="26" as="geometry" />
        </mxCell>
        <mxCell id="wBu85bXGG2CjQwWN3baM-90" value="- email: UserEmail" style="text;strokeColor=#6c8ebf;fillColor=#dae8fc;align=left;verticalAlign=top;spacingLeft=4;spacingRight=4;overflow=hidden;rotatable=0;points=[[0,0.5],[1,0.5]];portConstraint=eastwest;whiteSpace=wrap;html=1;" parent="wBu85bXGG2CjQwWN3baM-85" vertex="1">
          <mxGeometry y="70" width="180" height="26" as="geometry" />
        </mxCell>
        <mxCell id="wBu85bXGG2CjQwWN3baM-88" value="" style="line;strokeWidth=1;fillColor=#dae8fc;align=left;verticalAlign=middle;spacingTop=-1;spacingLeft=3;spacingRight=3;rotatable=0;labelPosition=right;points=[];portConstraint=eastwest;strokeColor=#6c8ebf;" parent="wBu85bXGG2CjQwWN3baM-85" vertex="1">
          <mxGeometry y="96" width="180" height="8" as="geometry" />
        </mxCell>
        <mxCell id="wBu85bXGG2CjQwWN3baM-50" value="&amp;lt;&amp;lt;aggregate&amp;gt;&amp;gt;&lt;div&gt;Guest&lt;br&gt;&lt;div&gt;&lt;br&gt;&lt;/div&gt;&lt;/div&gt;" style="swimlane;fontStyle=1;align=center;verticalAlign=top;childLayout=stackLayout;horizontal=1;startSize=44;horizontalStack=0;resizeParent=1;resizeParentMax=0;resizeLast=0;collapsible=1;marginBottom=0;whiteSpace=wrap;html=1;fillColor=#d5e8d4;strokeColor=#82b366;" parent="1" vertex="1">
          <mxGeometry x="840" y="912" width="270" height="234" as="geometry" />
        </mxCell>
        <mxCell id="wBu85bXGG2CjQwWN3baM-51" value="+ id: GuestId" style="text;strokeColor=#82b366;fillColor=#d5e8d4;align=left;verticalAlign=top;spacingLeft=4;spacingRight=4;overflow=hidden;rotatable=0;points=[[0,0.5],[1,0.5]];portConstraint=eastwest;whiteSpace=wrap;html=1;" parent="wBu85bXGG2CjQwWN3baM-50" vertex="1">
          <mxGeometry y="44" width="270" height="26" as="geometry" />
        </mxCell>
        <mxCell id="wBu85bXGG2CjQwWN3baM-92" value="- user: User" style="text;strokeColor=#82b366;fillColor=#d5e8d4;align=left;verticalAlign=top;spacingLeft=4;spacingRight=4;overflow=hidden;rotatable=0;points=[[0,0.5],[1,0.5]];portConstraint=eastwest;whiteSpace=wrap;html=1;" parent="wBu85bXGG2CjQwWN3baM-50" vertex="1">
          <mxGeometry y="70" width="270" height="26" as="geometry" />
        </mxCell>
        <mxCell id="wBu85bXGG2CjQwWN3baM-91" value="- eventsParticipated: List&amp;lt;EventId&amp;gt;" style="text;strokeColor=#82b366;fillColor=#d5e8d4;align=left;verticalAlign=top;spacingLeft=4;spacingRight=4;overflow=hidden;rotatable=0;points=[[0,0.5],[1,0.5]];portConstraint=eastwest;whiteSpace=wrap;html=1;" parent="wBu85bXGG2CjQwWN3baM-50" vertex="1">
          <mxGeometry y="96" width="270" height="26" as="geometry" />
        </mxCell>
        <mxCell id="wBu85bXGG2CjQwWN3baM-52" value="" style="line;strokeWidth=1;fillColor=#d5e8d4;align=left;verticalAlign=middle;spacingTop=-1;spacingLeft=3;spacingRight=3;rotatable=0;labelPosition=right;points=[];portConstraint=eastwest;strokeColor=#82b366;" parent="wBu85bXGG2CjQwWN3baM-50" vertex="1">
          <mxGeometry y="122" width="270" height="8" as="geometry" />
        </mxCell>
        <mxCell id="wBu85bXGG2CjQwWN3baM-53" value="+ ParticipateInEvent(eventId: EventId): void" style="text;strokeColor=#82b366;fillColor=#d5e8d4;align=left;verticalAlign=top;spacingLeft=4;spacingRight=4;overflow=hidden;rotatable=0;points=[[0,0.5],[1,0.5]];portConstraint=eastwest;whiteSpace=wrap;html=1;" parent="wBu85bXGG2CjQwWN3baM-50" vertex="1">
          <mxGeometry y="130" width="270" height="26" as="geometry" />
        </mxCell>
        <mxCell id="wBu85bXGG2CjQwWN3baM-101" value="+ RemoveParticipation(eventId: EventId): void" style="text;strokeColor=#82b366;fillColor=#d5e8d4;align=left;verticalAlign=top;spacingLeft=4;spacingRight=4;overflow=hidden;rotatable=0;points=[[0,0.5],[1,0.5]];portConstraint=eastwest;whiteSpace=wrap;html=1;" parent="wBu85bXGG2CjQwWN3baM-50" vertex="1">
          <mxGeometry y="156" width="270" height="26" as="geometry" />
        </mxCell>
        <mxCell id="wBu85bXGG2CjQwWN3baM-102" value="+ AcceptInvitation(invitationId: InvitationId): void" style="text;strokeColor=#82b366;fillColor=#d5e8d4;align=left;verticalAlign=top;spacingLeft=4;spacingRight=4;overflow=hidden;rotatable=0;points=[[0,0.5],[1,0.5]];portConstraint=eastwest;whiteSpace=wrap;html=1;" parent="wBu85bXGG2CjQwWN3baM-50" vertex="1">
          <mxGeometry y="182" width="270" height="26" as="geometry" />
        </mxCell>
        <mxCell id="wBu85bXGG2CjQwWN3baM-103" value="+ DeclineInvitation(invitationId: InvitationId): void" style="text;strokeColor=#82b366;fillColor=#d5e8d4;align=left;verticalAlign=top;spacingLeft=4;spacingRight=4;overflow=hidden;rotatable=0;points=[[0,0.5],[1,0.5]];portConstraint=eastwest;whiteSpace=wrap;html=1;" parent="wBu85bXGG2CjQwWN3baM-50" vertex="1">
          <mxGeometry y="208" width="270" height="26" as="geometry" />
        </mxCell>
      </root>
    </mxGraphModel>
  </diagram>
</mxfile>
